<?xml version="1.0" encoding="utf-8"?>
<!-- Generator: Adobe Illustrator 24.0.1, SVG Export Plug-In . SVG Version: 6.00 Build 0)  -->
<svg version="1.1" id="Layer_1" xmlns="http://www.w3.org/2000/svg" xmlns:xlink="http://www.w3.org/1999/xlink" x="0px" y="0px"
	 viewBox="0 0 1000 320.9" style="enable-background:new 0 0 1000 320.9;" xml:space="preserve">
<style type="text/css">
	.st0{fill-rule:evenodd;clip-rule:evenodd;fill:#1D1D1B;}
	.st1{fill-rule:evenodd;clip-rule:evenodd;fill:#004C79;}
	.st2{fill-rule:evenodd;clip-rule:evenodd;fill:#007AB5;}
	.st3{fill-rule:evenodd;clip-rule:evenodd;fill:#80AB26;}
	.st4{fill-rule:evenodd;clip-rule:evenodd;fill:#007936;}
	.st5{fill-rule:evenodd;clip-rule:evenodd;fill:#8CBC21;}
	.st6{fill-rule:evenodd;clip-rule:evenodd;fill:#00A039;}
	.st7{fill-rule:evenodd;clip-rule:evenodd;fill:#4AA5D7;}
	.st8{fill-rule:evenodd;clip-rule:evenodd;fill:#ACC70B;}
</style>
<g>
	<path class="st0" d="M859.2,266.3h-75.6l19.9-102.6h75.8l-4.5,23.2h-50l-3.3,17.3h40.8l-3.9,20.1h-40.7l-3.6,18.8h50L859.2,266.3z
		 M928.9,236.4l15.3,29.9h31.1l-26.9-52.4l43.3-50.1h-31.1l-23.8,27.6l-14.1-27.6h-31.1l25.7,50.1l-74.9,86.7h31.1L928.9,236.4z
		 M597.7,224.2c-2.9,9.7-8.1,18.4-15.8,26c-12.2,12.1-27.5,18.1-45.8,18.1c-13.7,0-25-4.2-33.9-12.5c-8.9-8.3-13.3-18.8-13.3-31.6
		c0-17.6,6.1-32.4,18.3-44.5c12.2-12.1,27.5-18.1,45.8-18.1c13.7,0,25,4.2,33.9,12.5c8.5,8,13,18,13.3,30h44.9h2.4h11.6
		c3.8,0,6.6-1,8.4-3.1c1.9-2,2.8-4.6,2.8-7.6c0-4.4-2.4-6.6-7.2-6.6h-19l-1.5,7.8h-25.7l6-31h47.2c8.3,0,14.9,2,19.8,6
		c4.9,4,7.4,9.3,7.4,15.8c0,6.6-1.5,12.3-4.5,17.3c-3,4.9-7.2,8.5-12.8,10.8v0.3c8.5,4.1,12.7,10.6,12.7,19.4c0,9.5-3,17.4-8.9,23.6
		c-6,6.2-14.7,9.3-26.3,9.3H603l6.3-32.6h25.7l-1.8,9.4h21.7c4.1,0,7.1-1.1,8.9-3.2c1.9-2.1,2.8-4.8,2.8-7.9c0-2.2-0.6-4-1.9-5.5
		c-1.3-1.5-3.2-2.2-5.9-2.2h-11.5h-4.9H597.7z M538.6,245.1c9.9,0,18.3-3.5,25-10.4c6.7-6.9,10.1-15.4,10.1-25.4
		c0-7.2-2.1-13.1-6.4-17.6c-4.3-4.5-10-6.8-17.3-6.8c-9.9,0-18.2,3.5-24.7,10.3c-6.5,6.9-9.8,15.4-9.8,25.6c0,7.2,2.1,13.1,6.2,17.6
		C525.9,242.8,531.5,245.1,538.6,245.1z M376.4,201.2l-12.7,65.1h-25.7l12.6-65.1c2.5-13.3,7.4-23.2,14.8-29.7
		c7.4-6.5,16.5-9.8,27.5-9.8c12.5,0,21.4,4.5,26.6,13.6h0.3c7.3-9.1,17.2-13.6,29.6-13.6c9.4,0,17.1,2.5,23.1,7.5c6,5,9,12.4,9,22.1
		c0,2.9-0.3,6.2-1,9.9l-12.6,65.1h-25.7l12.7-65.1c0.3-2,0.5-4,0.5-6c0-6.9-3.4-10.3-10.4-10.3c-3.9,0-7.3,1.3-10.3,3.9
		c-3,2.6-5.1,6.7-6.2,12.4L416,266.3h-25.7l12.5-65.1c0.4-2,0.6-3.9,0.6-5.8c0-7-3.5-10.5-10.4-10.5c-3.9,0-7.3,1.3-10.3,4
		C379.7,191.5,377.6,195.6,376.4,201.2z M743.6,266.3h-25.7l15.4-79.4h-27.8l4.7-23.2h81.2l-4.5,23.2h-27.9L743.6,266.3z"/>
	<polygon class="st1" points="153.3,121.2 131.4,110.3 91.5,132.5 115.3,161.4 	"/>
	<path class="st2" d="M113.5,143.3l-21.9-10.8c0,53.4,0,106.9,0,160.3l21.9,10.8l17.2-87.8L113.5,143.3z"/>
	<polygon class="st3" points="330.5,30.7 287.1,8.9 250.9,29.1 250.9,74.9 	"/>
	<polygon class="st4" points="250.9,29.1 207.4,7.3 171.2,27.5 171.2,73.3 	"/>
	<polygon class="st1" points="171.2,27.5 127.7,5.7 8.2,72.1 24.6,96.3 51.7,93.8 	"/>
	<polygon class="st3" points="312.6,124.4 290.7,113.6 250.9,135.7 273.1,164.9 	"/>
	<polygon class="st5" points="272.8,146.5 250.9,135.7 250.9,204.2 272.8,215.1 286.2,169.3 	"/>
	<polygon class="st4" points="233,122.8 211,111.9 171.2,134.1 192.8,157.3 	"/>
	<polygon class="st6" points="193.1,144.9 171.2,134.1 171.2,248.5 193.1,259.3 211.5,189.5 	"/>
	<polygon class="st5" points="233,122.8 193.1,144.9 193.1,259.3 233,237.2 	"/>
	<polygon class="st7" points="153.3,121.2 113.5,143.3 113.5,148.3 113.5,153.3 113.5,158.3 113.5,163.3 113.5,168.3 113.5,173.3 
		113.5,178.4 113.5,183.4 113.5,188.4 113.5,193.4 113.5,198.4 113.5,203.4 113.5,208.4 113.5,213.4 113.5,218.4 113.5,223.4 
		113.5,228.4 113.5,233.5 113.5,238.5 113.5,243.5 113.5,248.5 113.5,253.5 113.5,258.5 113.5,263.5 113.5,268.5 113.5,273.5 
		113.5,278.5 113.5,283.5 113.5,288.6 113.5,293.6 113.5,298.6 113.5,303.6 153.3,281.5 	"/>
	<polygon class="st8" points="312.6,124.4 272.8,146.5 272.8,215.1 312.6,192.9 	"/>
	<polygon class="st2" points="8.2,293.2 8.2,72.1 51.7,93.8 51.7,314.9 	"/>
</g>
</svg>
