<?xml version="1.0" encoding="UTF-8"?>
<svg xmlns="http://www.w3.org/2000/svg" xmlns:xlink="http://www.w3.org/1999/xlink" width="299px" height="96px" viewBox="0 0 299 96" version="1.1">
<g id="surface1">
<path style=" stroke:none;fill-rule:evenodd;fill:rgb(100%,100%,100%);fill-opacity:1;" d="M 256.902344 79.640625 L 234.296875 79.640625 L 240.246094 48.957031 L 262.910156 48.957031 L 261.566406 55.894531 L 246.613281 55.894531 L 245.628906 61.070312 L 257.828125 61.070312 L 256.660156 67.082031 L 244.492188 67.082031 L 243.414062 72.703125 L 258.367188 72.703125 Z M 277.742188 70.699219 L 282.316406 79.640625 L 291.613281 79.640625 L 283.570312 63.96875 L 296.519531 48.988281 L 287.21875 48.988281 L 280.101562 57.242188 L 275.886719 48.988281 L 266.589844 48.988281 L 274.273438 63.96875 L 251.878906 89.898438 L 261.175781 89.898438 Z M 178.710938 67.050781 C 177.84375 69.953125 176.289062 72.554688 173.988281 74.824219 C 170.339844 78.445312 165.765625 80.238281 160.292969 80.238281 C 156.199219 80.238281 152.820312 78.984375 150.15625 76.5 C 147.496094 74.019531 146.179688 70.878906 146.179688 67.050781 C 146.179688 61.785156 148.003906 57.359375 151.652344 53.742188 C 155.300781 50.125 159.875 48.328125 165.347656 48.328125 C 169.441406 48.328125 172.820312 49.585938 175.484375 52.066406 C 178.023438 54.460938 179.371094 57.449219 179.460938 61.039062 L 197.070312 61.039062 C 198.207031 61.039062 199.042969 60.738281 199.582031 60.113281 C 200.152344 59.515625 200.417969 58.738281 200.417969 57.839844 C 200.417969 56.523438 199.703125 55.867188 198.265625 55.867188 L 192.585938 55.867188 L 192.136719 58.199219 L 184.453125 58.199219 L 186.246094 48.925781 L 200.359375 48.925781 C 202.839844 48.925781 204.816406 49.523438 206.28125 50.722656 C 207.746094 51.917969 208.492188 53.503906 208.492188 55.445312 C 208.492188 57.421875 208.042969 59.125 207.148438 60.621094 C 206.25 62.085938 204.996094 63.164062 203.320312 63.851562 L 203.320312 63.941406 C 205.863281 65.167969 207.117188 67.109375 207.117188 69.742188 C 207.117188 72.582031 206.21875 74.945312 204.457031 76.800781 C 202.664062 78.652344 200.0625 79.582031 196.59375 79.582031 L 180.296875 79.582031 L 182.179688 69.832031 L 189.863281 69.832031 L 189.328125 72.644531 L 195.816406 72.644531 C 197.039062 72.644531 197.9375 72.3125 198.476562 71.6875 C 199.042969 71.058594 199.3125 70.25 199.3125 69.324219 C 199.3125 68.664062 199.132812 68.128906 198.746094 67.679688 C 198.355469 67.230469 197.789062 67.019531 196.980469 67.019531 L 178.710938 67.019531 Z M 161.042969 73.300781 C 164 73.300781 166.511719 72.253906 168.515625 70.191406 C 170.519531 68.128906 171.535156 65.585938 171.535156 62.59375 C 171.535156 60.441406 170.910156 58.675781 169.621094 57.332031 C 168.335938 55.984375 166.632812 55.296875 164.449219 55.296875 C 161.488281 55.296875 159.007812 56.34375 157.066406 58.378906 C 155.121094 60.441406 154.132812 62.984375 154.132812 66.035156 C 154.132812 68.1875 154.761719 69.953125 155.988281 71.296875 C 157.242188 72.613281 158.917969 73.300781 161.042969 73.300781 Z M 112.542969 60.171875 L 108.746094 79.640625 L 101.0625 79.640625 L 104.828125 60.171875 C 105.578125 56.195312 107.042969 53.234375 109.253906 51.289062 C 111.46875 49.347656 114.1875 48.359375 117.476562 48.359375 C 121.214844 48.359375 123.875 49.703125 125.429688 52.425781 L 125.519531 52.425781 C 127.703125 49.703125 130.664062 48.359375 134.371094 48.359375 C 137.179688 48.359375 139.484375 49.105469 141.277344 50.601562 C 143.070312 52.097656 143.96875 54.308594 143.96875 57.210938 C 143.96875 58.078125 143.878906 59.066406 143.667969 60.171875 L 139.902344 79.640625 L 132.21875 79.640625 L 136.015625 60.171875 C 136.105469 59.574219 136.164062 58.976562 136.164062 58.378906 C 136.164062 56.3125 135.148438 55.296875 133.054688 55.296875 C 131.890625 55.296875 130.871094 55.6875 129.976562 56.464844 C 129.078125 57.242188 128.449219 58.46875 128.121094 60.171875 L 124.382812 79.640625 L 116.699219 79.640625 L 120.4375 60.171875 C 120.558594 59.574219 120.617188 59.003906 120.617188 58.4375 C 120.617188 56.34375 119.570312 55.296875 117.507812 55.296875 C 116.339844 55.296875 115.324219 55.6875 114.425781 56.492188 C 113.53125 57.269531 112.902344 58.496094 112.542969 60.171875 Z M 222.335938 79.640625 L 214.652344 79.640625 L 219.257812 55.894531 L 210.945312 55.894531 L 212.351562 48.957031 L 236.628906 48.957031 L 235.28125 55.894531 L 226.941406 55.894531 Z M 222.335938 79.640625 "/>
<path style=" stroke:none;fill-rule:evenodd;fill:rgb(0%,29.803922%,47.45098%);fill-opacity:1;" d="M 45.835938 36.246094 L 39.289062 32.988281 L 27.359375 39.625 L 34.476562 48.269531 Z M 45.835938 36.246094 "/>
<path style=" stroke:none;fill-rule:evenodd;fill:rgb(0%,47.843137%,70.980392%);fill-opacity:1;" d="M 33.9375 42.855469 L 27.386719 39.625 C 27.386719 55.597656 27.386719 71.597656 27.386719 87.566406 L 33.9375 90.796875 L 39.078125 64.539062 Z M 33.9375 42.855469 "/>
<path style=" stroke:none;fill-rule:evenodd;fill:rgb(50.196078%,67.058824%,14.901961%);fill-opacity:1;" d="M 98.820312 9.179688 L 85.84375 2.660156 L 75.019531 8.703125 L 75.019531 22.398438 Z M 98.820312 9.179688 "/>
<path style=" stroke:none;fill-rule:evenodd;fill:rgb(0%,47.45098%,21.176471%);fill-opacity:1;" d="M 75.019531 8.703125 L 62.011719 2.183594 L 51.1875 8.222656 L 51.1875 21.921875 Z M 75.019531 8.703125 "/>
<path style=" stroke:none;fill-rule:evenodd;fill:rgb(0%,29.803922%,47.45098%);fill-opacity:1;" d="M 51.1875 8.222656 L 38.183594 1.703125 L 2.453125 21.5625 L 7.355469 28.800781 L 15.457031 28.050781 Z M 51.1875 8.222656 "/>
<path style=" stroke:none;fill-rule:evenodd;fill:rgb(50.196078%,67.058824%,14.901961%);fill-opacity:1;" d="M 93.46875 37.203125 L 86.917969 33.972656 L 75.019531 40.582031 L 81.65625 49.316406 Z M 93.46875 37.203125 "/>
<path style=" stroke:none;fill-rule:evenodd;fill:rgb(54.901961%,73.72549%,12.941176%);fill-opacity:1;" d="M 81.566406 43.8125 L 75.019531 40.582031 L 75.019531 61.070312 L 81.566406 64.328125 L 85.574219 50.632812 Z M 81.566406 43.8125 "/>
<path style=" stroke:none;fill-rule:evenodd;fill:rgb(0%,47.45098%,21.176471%);fill-opacity:1;" d="M 69.667969 36.726562 L 63.089844 33.464844 L 51.1875 40.105469 L 57.648438 47.042969 Z M 69.667969 36.726562 "/>
<path style=" stroke:none;fill-rule:evenodd;fill:rgb(0%,62.745098%,22.352941%);fill-opacity:1;" d="M 57.738281 43.335938 L 51.1875 40.105469 L 51.1875 74.316406 L 57.738281 77.546875 L 63.238281 56.671875 Z M 57.738281 43.335938 "/>
<path style=" stroke:none;fill-rule:evenodd;fill:rgb(54.901961%,73.72549%,12.941176%);fill-opacity:1;" d="M 69.667969 36.726562 L 57.738281 43.335938 L 57.738281 77.546875 L 69.667969 70.9375 Z M 69.667969 36.726562 "/>
<path style=" stroke:none;fill-rule:evenodd;fill:rgb(29.019608%,64.705882%,84.313725%);fill-opacity:1;" d="M 45.835938 36.246094 L 33.9375 42.855469 L 33.9375 90.796875 L 45.835938 84.1875 Z M 45.835938 36.246094 "/>
<path style=" stroke:none;fill-rule:evenodd;fill:rgb(67.45098%,78.039216%,4.313725%);fill-opacity:1;" d="M 93.46875 37.203125 L 81.566406 43.8125 L 81.566406 64.328125 L 93.46875 57.691406 Z M 93.46875 37.203125 "/>
<path style=" stroke:none;fill-rule:evenodd;fill:rgb(0%,47.843137%,70.980392%);fill-opacity:1;" d="M 2.453125 87.6875 L 2.453125 21.5625 L 15.457031 28.050781 L 15.457031 94.175781 Z M 2.453125 87.6875 "/>
</g>
</svg>
