<?xml version="1.0" encoding="UTF-8"?>
<svg xmlns="http://www.w3.org/2000/svg" xmlns:xlink="http://www.w3.org/1999/xlink" width="187px" height="60px" viewBox="0 0 186 60" version="1.1">
<g id="surface1">
<path style=" stroke:none;fill-rule:evenodd;fill:rgb(100%,100%,100%);fill-opacity:1;" d="M 159.8125 49.777344 L 145.75 49.777344 L 149.449219 30.597656 L 163.550781 30.597656 L 162.714844 34.933594 L 153.410156 34.933594 L 152.800781 38.167969 L 160.386719 38.167969 L 159.660156 41.925781 L 152.09375 41.925781 L 151.421875 45.441406 L 160.722656 45.441406 Z M 172.777344 44.1875 L 175.621094 49.777344 L 181.40625 49.777344 L 176.402344 39.980469 L 184.457031 30.617188 L 178.671875 30.617188 L 174.242188 35.777344 L 171.621094 30.617188 L 165.839844 30.617188 L 170.617188 39.980469 L 156.6875 56.1875 L 162.46875 56.1875 Z M 111.171875 41.90625 C 110.632812 43.722656 109.664062 45.347656 108.234375 46.765625 C 105.964844 49.027344 103.117188 50.148438 99.714844 50.148438 C 97.167969 50.148438 95.066406 49.367188 93.410156 47.8125 C 91.753906 46.261719 90.933594 44.300781 90.933594 41.90625 C 90.933594 38.617188 92.070312 35.851562 94.339844 33.589844 C 96.609375 31.328125 99.453125 30.207031 102.859375 30.207031 C 105.40625 30.207031 107.507812 30.992188 109.164062 32.542969 C 110.742188 34.039062 111.582031 35.90625 111.636719 38.148438 L 122.59375 38.148438 C 123.300781 38.148438 123.820312 37.960938 124.15625 37.570312 C 124.507812 37.195312 124.675781 36.710938 124.675781 36.148438 C 124.675781 35.328125 124.230469 34.917969 123.335938 34.917969 L 119.800781 34.917969 L 119.523438 36.375 L 114.742188 36.375 L 115.859375 30.578125 L 124.636719 30.578125 C 126.179688 30.578125 127.410156 30.953125 128.320312 31.703125 C 129.234375 32.449219 129.699219 33.441406 129.699219 34.652344 C 129.699219 35.890625 129.417969 36.953125 128.863281 37.886719 C 128.300781 38.804688 127.523438 39.476562 126.480469 39.90625 L 126.480469 39.964844 C 128.0625 40.730469 128.84375 41.941406 128.84375 43.589844 C 128.84375 45.363281 128.285156 46.839844 127.1875 48 C 126.070312 49.15625 124.453125 49.738281 122.296875 49.738281 L 112.15625 49.738281 L 113.328125 43.644531 L 118.109375 43.644531 L 117.777344 45.402344 L 121.8125 45.402344 C 122.574219 45.402344 123.132812 45.195312 123.46875 44.804688 C 123.820312 44.410156 123.988281 43.90625 123.988281 43.328125 C 123.988281 42.914062 123.875 42.582031 123.632812 42.300781 C 123.390625 42.019531 123.039062 41.886719 122.535156 41.886719 L 111.171875 41.886719 Z M 100.179688 45.8125 C 102.019531 45.8125 103.582031 45.160156 104.828125 43.871094 C 106.074219 42.582031 106.707031 40.992188 106.707031 39.121094 C 106.707031 37.777344 106.320312 36.671875 105.515625 35.832031 C 104.71875 34.992188 103.65625 34.5625 102.300781 34.5625 C 100.457031 34.5625 98.914062 35.214844 97.707031 36.488281 C 96.496094 37.777344 95.882812 39.367188 95.882812 41.273438 C 95.882812 42.617188 96.273438 43.722656 97.035156 44.5625 C 97.816406 45.382812 98.859375 45.8125 100.179688 45.8125 Z M 70.011719 37.609375 L 67.648438 49.777344 L 62.867188 49.777344 L 65.210938 37.609375 C 65.675781 35.121094 66.589844 33.273438 67.964844 32.054688 C 69.339844 30.84375 71.03125 30.226562 73.078125 30.226562 C 75.40625 30.226562 77.058594 31.066406 78.027344 32.765625 L 78.082031 32.765625 C 79.441406 31.066406 81.28125 30.226562 83.589844 30.226562 C 85.335938 30.226562 86.769531 30.691406 87.886719 31.625 C 89 32.5625 89.558594 33.941406 89.558594 35.757812 C 89.558594 36.300781 89.503906 36.917969 89.371094 37.609375 L 87.03125 49.777344 L 82.25 49.777344 L 84.613281 37.609375 C 84.667969 37.234375 84.703125 36.859375 84.703125 36.488281 C 84.703125 35.195312 84.074219 34.5625 82.769531 34.5625 C 82.046875 34.5625 81.410156 34.804688 80.855469 35.289062 C 80.296875 35.777344 79.90625 36.542969 79.699219 37.609375 L 77.375 49.777344 L 72.59375 49.777344 L 74.921875 37.609375 C 74.996094 37.234375 75.03125 36.878906 75.03125 36.523438 C 75.03125 35.214844 74.382812 34.5625 73.097656 34.5625 C 72.371094 34.5625 71.738281 34.804688 71.179688 35.308594 C 70.625 35.792969 70.234375 36.558594 70.011719 37.609375 Z M 138.308594 49.777344 L 133.53125 49.777344 L 136.394531 34.933594 L 131.222656 34.933594 L 132.097656 30.597656 L 147.199219 30.597656 L 146.363281 34.933594 L 141.175781 34.933594 Z M 138.308594 49.777344 "/>
<path style=" stroke:none;fill-rule:evenodd;fill:rgb(0%,29.803922%,47.45098%);fill-opacity:1;" d="M 28.511719 22.652344 L 24.441406 20.617188 L 17.019531 24.765625 L 21.445312 30.167969 Z M 28.511719 22.652344 "/>
<path style=" stroke:none;fill-rule:evenodd;fill:rgb(0%,47.843137%,70.980392%);fill-opacity:1;" d="M 21.113281 26.785156 L 17.035156 24.765625 C 17.035156 34.75 17.035156 44.75 17.035156 54.730469 L 21.113281 56.75 L 24.308594 40.335938 Z M 21.113281 26.785156 "/>
<path style=" stroke:none;fill-rule:evenodd;fill:rgb(50.196078%,67.058824%,14.901961%);fill-opacity:1;" d="M 61.472656 5.738281 L 53.402344 1.664062 L 46.667969 5.4375 L 46.667969 14 Z M 61.472656 5.738281 "/>
<path style=" stroke:none;fill-rule:evenodd;fill:rgb(0%,47.45098%,21.176471%);fill-opacity:1;" d="M 46.667969 5.4375 L 38.574219 1.363281 L 31.84375 5.140625 L 31.84375 13.703125 Z M 46.667969 5.4375 "/>
<path style=" stroke:none;fill-rule:evenodd;fill:rgb(0%,29.803922%,47.45098%);fill-opacity:1;" d="M 31.84375 5.140625 L 23.753906 1.0625 L 1.527344 13.476562 L 4.574219 18 L 9.617188 17.53125 Z M 31.84375 5.140625 "/>
<path style=" stroke:none;fill-rule:evenodd;fill:rgb(50.196078%,67.058824%,14.901961%);fill-opacity:1;" d="M 58.144531 23.253906 L 54.070312 21.234375 L 46.667969 25.363281 L 50.796875 30.824219 Z M 58.144531 23.253906 "/>
<path style=" stroke:none;fill-rule:evenodd;fill:rgb(54.901961%,73.72549%,12.941176%);fill-opacity:1;" d="M 50.742188 27.382812 L 46.667969 25.363281 L 46.667969 38.167969 L 50.742188 40.203125 L 53.234375 31.644531 Z M 50.742188 27.382812 "/>
<path style=" stroke:none;fill-rule:evenodd;fill:rgb(0%,47.45098%,21.176471%);fill-opacity:1;" d="M 43.339844 22.953125 L 39.246094 20.914062 L 31.84375 25.066406 L 35.863281 29.402344 Z M 43.339844 22.953125 "/>
<path style=" stroke:none;fill-rule:evenodd;fill:rgb(0%,62.745098%,22.352941%);fill-opacity:1;" d="M 35.917969 27.085938 L 31.84375 25.066406 L 31.84375 46.449219 L 35.917969 48.46875 L 39.339844 35.421875 Z M 35.917969 27.085938 "/>
<path style=" stroke:none;fill-rule:evenodd;fill:rgb(54.901961%,73.72549%,12.941176%);fill-opacity:1;" d="M 43.339844 22.953125 L 35.917969 27.085938 L 35.917969 48.46875 L 43.339844 44.335938 Z M 43.339844 22.953125 "/>
<path style=" stroke:none;fill-rule:evenodd;fill:rgb(29.019608%,64.705882%,84.313725%);fill-opacity:1;" d="M 28.511719 22.652344 L 21.113281 26.785156 L 21.113281 56.75 L 28.511719 52.617188 Z M 28.511719 22.652344 "/>
<path style=" stroke:none;fill-rule:evenodd;fill:rgb(67.45098%,78.039216%,4.313725%);fill-opacity:1;" d="M 58.144531 23.253906 L 50.742188 27.382812 L 50.742188 40.203125 L 58.144531 36.058594 Z M 58.144531 23.253906 "/>
<path style=" stroke:none;fill-rule:evenodd;fill:rgb(0%,47.843137%,70.980392%);fill-opacity:1;" d="M 1.527344 54.804688 L 1.527344 13.476562 L 9.617188 17.53125 L 9.617188 58.859375 Z M 1.527344 54.804688 "/>
</g>
</svg>
